<?xml version="1.0" standalone="no"?>
<!DOCTYPE svg PUBLIC "-//W3C//DTD SVG 20010904//EN"
 "http://www.w3.org/TR/2001/REC-SVG-20010904/DTD/svg10.dtd">
<svg version="1.0" xmlns="http://www.w3.org/2000/svg"
 width="500.000000pt" height="500.000000pt" viewBox="0 0 500.000000 500.000000"
 preserveAspectRatio="xMidYMid meet">
<metadata>
Created by potrace 1.14, written by Peter Selinger 2001-2017
</metadata>
<g transform="translate(0.000000,500.000000) scale(0.100000,-0.100000)"
fill="#000000" stroke="none">
<path d="M0 2500 l0 -2500 2500 0 2500 0 0 2500 0 2500 -2500 0 -2500 0 0
-2500z m3930 530 l0 -50 70 0 70 0 0 -140 0 -140 -135 0 -135 0 0 50 0 50 -70
0 -70 0 0 140 0 140 135 0 135 0 0 -50z m-2323 -430 c62 -168 112 -308 113
-312 0 -5 -17 -8 -39 -8 l-39 0 -28 80 -28 81 -134 -3 -135 -3 -27 -75 -27
-75 -42 -3 -41 -3 18 48 c11 26 63 169 117 316 l99 268 40 -3 41 -3 112 -305z
m505 114 c15 -8 35 -26 44 -40 16 -24 17 -24 30 -5 63 89 229 85 286 -8 21
-33 23 -50 26 -208 l4 -173 -35 0 -35 0 -4 153 c-5 167 -17 209 -64 227 -47
18 -83 12 -119 -22 -43 -41 -55 -94 -55 -249 l0 -109 -35 0 -35 0 0 138 c0 75
-5 154 -10 174 -15 54 -54 81 -108 75 -91 -10 -112 -57 -112 -247 l0 -140 -40
0 -40 0 2 223 3 222 33 3 c30 3 32 1 32 -27 0 -17 2 -31 4 -31 3 0 17 11 32
25 49 45 130 53 196 19z m764 15 c28 -7 54 -23 72 -43 l27 -31 32 31 c55 56
160 65 229 19 51 -33 64 -83 64 -262 l0 -163 -35 0 -35 0 0 138 c0 75 -5 154
-10 174 -27 95 -139 105 -197 19 -21 -32 -23 -44 -23 -182 l0 -149 -40 0 -40
0 0 145 c0 157 -9 199 -51 229 -53 36 -130 9 -160 -57 -15 -35 -19 -66 -19
-179 l0 -138 -40 0 -40 0 2 223 3 222 32 3 c28 3 32 0 38 -28 l7 -32 28 27
c24 23 61 39 103 44 5 1 28 -4 53 -10z m824 -14 c74 -39 90 -88 90 -281 l0
-154 -35 0 c-34 0 -35 1 -35 37 l0 37 -32 -31 c-46 -43 -70 -53 -124 -53 -97
0 -164 58 -164 142 0 87 67 130 213 136 86 4 97 6 97 23 0 57 -48 99 -112 99
-40 0 -94 -31 -103 -59 -5 -17 -15 -21 -46 -21 -43 0 -46 7 -24 50 43 84 184
122 275 75z m-632 -547 c21 -21 13 -26 -29 -21 -36 5 -41 4 -38 -12 2 -10 22
-28 44 -41 45 -25 56 -55 29 -85 -30 -33 -104 -21 -104 18 0 10 6 10 25 -3 30
-19 65 -10 65 17 0 13 -12 25 -35 35 -47 19 -65 56 -40 84 20 22 64 27 83 8z
m185 -3 c-1 -5 -14 -11 -27 -13 -24 -3 -25 -7 -28 -79 -2 -50 -7 -78 -15 -81
-10 -3 -13 17 -13 77 0 79 -1 81 -24 81 -26 0 -40 12 -29 24 11 11 138 2 136
-9z m166 0 c84 -43 49 -175 -46 -175 -48 0 -78 21 -93 64 -13 41 -2 75 36 105
31 25 64 27 103 6z m196 -10 c29 -28 31 -51 10 -83 -14 -19 -14 -24 1 -47 25
-39 6 -45 -25 -7 -35 41 -68 43 -73 5 -2 -16 -7 -28 -13 -28 -10 0 -20 148
-11 172 9 24 84 16 111 -12z m190 10 c0 -5 -24 -11 -52 -13 -48 -3 -53 -5 -53
-27 0 -21 5 -24 43 -27 23 -2 42 -7 42 -13 0 -5 -19 -11 -42 -13 -40 -3 -43
-5 -43 -33 0 -29 1 -29 57 -29 40 0 54 -3 46 -11 -5 -5 -37 -9 -69 -7 l-59 3
-3 70 c-5 113 -3 116 71 113 34 -2 62 -7 62 -13z"/>
<path d="M1445 2789 c-49 -134 -95 -266 -95 -276 0 -10 25 -13 105 -13 58 0
105 3 105 6 0 8 -101 288 -106 293 -2 2 -6 -2 -9 -10z"/>
<path d="M3540 2483 c-31 -12 -60 -47 -60 -75 0 -61 79 -95 146 -62 47 23 73
58 81 107 l6 37 -79 -1 c-44 0 -86 -3 -94 -6z"/>
<path d="M3320 2130 c-27 -27 -25 -66 5 -95 30 -30 54 -31 89 -4 30 24 34 63
10 97 -20 29 -76 30 -104 2z"/>
<path d="M3530 2110 c0 -34 3 -40 21 -40 31 0 59 18 59 38 0 26 -20 42 -52 42
-26 0 -28 -3 -28 -40z"/>
</g>
</svg>
